<svg width="450" height="230" viewBox="0 0 450 230" fill="none" xmlns="http://www.w3.org/2000/svg">
    <path d="M426.338 107.73C495.394 182.321 408.453 231.226 228.61 205.539C59.1993 227.274 -46.1231 196.647 19.9524 111.188C86.028 25.7297 99.4412 48.4526 208.241 11.4041C317.041 -25.6444 357.283 33.1393 426.338 107.73Z" fill="#FAFBFF"/>
    <path opacity="0.2" d="M122.938 208.96C120.271 208.96 118.005 207.96 116.138 205.96C114.271 203.96 113.338 201.56 113.338 198.76V173.56H46.7382C43.6715 173.56 41.2715 172.627 39.5382 170.76C37.8048 168.894 36.8048 166.76 36.5382 164.36C36.4048 161.827 37.0715 159.56 38.5382 157.56L115.138 57.1602C116.205 55.8269 117.405 54.7602 118.738 53.9603C120.205 53.1603 121.805 52.7603 123.538 52.7603C126.338 52.7603 128.605 53.7603 130.338 55.7603C132.071 57.7602 132.938 60.2269 132.938 63.1603V155.16H144.938C147.738 155.16 150.138 155.827 152.138 157.16C154.138 158.494 155.138 160.894 155.138 164.36C155.138 166.894 154.138 169.094 152.138 170.96C150.138 172.694 147.738 173.56 144.938 173.56H132.938V198.76C132.938 201.56 132.005 203.96 130.138 205.96C128.271 207.96 125.871 208.96 122.938 208.96ZM113.338 155.16V88.9603L62.9382 155.16H113.338Z" fill="url(#paint0_linear)"/>
    <path opacity="0.2" d="M367.938 208.96C365.271 208.96 363.005 207.96 361.138 205.96C359.271 203.96 358.338 201.56 358.338 198.76V173.56H291.738C288.671 173.56 286.271 172.626 284.538 170.76C282.805 168.893 281.805 166.76 281.538 164.36C281.405 161.826 282.071 159.56 283.538 157.56L360.138 57.1598C361.205 55.8264 362.405 54.7598 363.738 53.9598C365.205 53.1598 366.805 52.7598 368.538 52.7598C371.338 52.7598 373.605 53.7598 375.338 55.7598C377.071 57.7598 377.938 60.2264 377.938 63.1598V155.16H389.938C392.738 155.16 395.138 155.826 397.138 157.16C399.138 158.493 400.138 160.893 400.138 164.36C400.138 166.893 399.138 169.093 397.138 170.96C395.138 172.693 392.738 173.56 389.938 173.56H377.938V198.76C377.938 201.56 377.005 203.96 375.138 205.96C373.271 207.96 370.871 208.96 367.938 208.96ZM358.338 155.16V88.9598L307.938 155.16H358.338Z" fill="url(#paint1_linear)"/>
    <path opacity="0.13" fill-rule="evenodd" clip-rule="evenodd" d="M225.052 191.212C262.641 191.212 293.114 160.913 293.114 123.537C293.114 86.1608 262.641 55.8616 225.052 55.8616C187.462 55.8616 156.99 86.1608 156.99 123.537C156.99 160.913 187.462 191.212 225.052 191.212ZM225.052 207.02C271.421 207.02 309.012 169.643 309.012 123.537C309.012 77.4307 271.421 40.0542 225.052 40.0542C178.682 40.0542 141.092 77.4307 141.092 123.537C141.092 169.643 178.682 207.02 225.052 207.02Z" fill="url(#paint2_linear)"/>
    <path d="M214.619 213.935L217.6 212.453L219.09 208.501L219.587 207.019H222.568H225.548V210.477L228.033 213.935L233.497 214.923L241.943 215.911H249.395L254.86 214.923L258.338 212.453C259.497 211.959 261.915 210.872 262.312 210.477C262.709 210.082 265.127 209.324 266.286 208.995C267.28 207.513 269.267 204.45 269.267 204.055C269.267 203.66 270.923 198.292 271.751 195.657L278.21 196.645L283.675 199.609L288.643 204.055L289.636 207.513L287.152 211.465L281.687 214.923L273.242 217.887L269.764 220.85V223.814L271.751 226.778L277.216 228.754L283.178 227.766L288.643 226.284L294.604 221.344L299.076 216.899L301.063 210.477V205.043L297.585 198.127L286.655 192.694L278.707 190.224L273.242 189.73L273.739 186.766V174.416V159.103L271.254 145.765L267.28 132.922L263.306 126.5L264.299 121.066L265.79 113.163L264.299 105.753L262.809 101.307L260.325 100.319L255.854 102.295L248.401 106.741L243.93 110.693L241.446 110.199L232.504 108.223L224.555 107.235L211.141 108.717L205.676 109.211L201.702 106.247L193.256 100.319L189.282 98.8373L186.301 100.319L184.811 104.765L182.823 110.199L184.811 118.103L186.301 125.018L182.823 130.946L178.849 138.85L175.868 147.741L173.881 161.079V172.44V185.778L175.868 197.633L178.849 204.549L183.817 209.983L186.301 210.971L187.295 213.935L192.263 215.417H201.205H209.651L214.619 213.935Z" fill="white"/>
    <path opacity="0.12" d="M275.23 196.152L271.753 195.164L273.243 189.236L279.205 190.224L285.663 191.706L293.612 195.164L299.077 200.598L302.058 207.514L299.077 216.405L292.619 224.309L285.663 227.273L276.224 228.755L271.753 227.273L269.766 224.309V221.345L273.243 217.393L282.683 214.429L289.141 210.477V207.514L287.154 202.08L282.683 199.116L275.23 196.152Z" fill="url(#paint3_linear)"/>
    <path opacity="0.1" d="M175.373 195.162C176.963 203.461 182.991 208.829 185.806 210.476L187.296 213.934L190.774 214.922L196.239 215.909H207.665L216.608 213.934L219.589 210.476V206.524H226.544L225.55 209.488L226.544 212.946L234.493 214.922H241.945H250.39H255.358L258.836 211.958L261.817 210.476L265.791 209.488L269.269 204.548L271.256 195.162L274.237 181.825V168.487L272.747 157.62L271.256 147.246L268.275 136.379L263.307 125.017L264.301 118.101L265.791 111.186L264.301 103.776L261.817 100.812H257.842L254.365 102.788L250.39 105.752L245.919 108.716L243.435 111.186L238.467 108.716L226.544 107.728H214.124L205.678 109.704L201.704 105.752L195.245 100.812L190.774 99.3301H188.29L185.806 100.812L184.315 105.752V111.186V121.065L185.806 125.017L182.328 130.945C180.507 135.555 176.367 146.653 174.379 154.162C171.895 163.548 173.386 184.789 175.373 195.162Z" fill="url(#paint4_linear)"/>
    <path d="M195.334 153.348C193.419 149.361 194.76 143.993 201.206 140.331C202.113 139.815 201.871 138.56 201.554 136.92C200.657 132.273 199.162 124.536 221.519 121.772C244.416 118.941 247.241 131.112 249.384 140.346C250.072 143.312 250.69 145.974 251.88 147.74C256.775 155.006 257.91 158.114 248.402 164.536C244.36 167.267 245.421 171.979 247.609 177.398L246.415 177.873L242.938 178.861L240.454 181.331L238.963 184.295L239.46 189.729L244.428 192.693H250.887L253.222 192.112C253.812 194.922 253.845 197.638 252.845 200.107C252.795 200.231 252.744 200.353 252.691 200.475L249.893 198.62L242.938 196.15H238.467L233.002 198.62L228.531 202.078L226.047 207.018L225.557 206.986L225.448 206.553L219.239 206.078L216.11 202.078L210.149 197.138L204.187 196.15H198.722L194.748 199.114L194.277 199.515C193.807 198.908 193.367 198.284 192.958 197.644C191.517 195.386 190.849 192.044 190.779 188.38L195.741 190.717L201.206 191.211L206.174 190.717L209.652 186.271V182.813L208.658 178.861L203.193 176.885L197.232 173.427L194.3 171.484C194.877 170.343 195.509 169.356 196.183 168.576C200.532 163.54 197.996 158.579 196.032 154.739C195.786 154.257 195.548 153.793 195.334 153.348Z" fill="white"/>
    <path d="M225.771 207.839L226.047 207.018L225.886 208.295L225.771 207.839Z" fill="white"/>
    <ellipse cx="211.218" cy="141.32" rx="3.47763" ry="3.45786" fill="#7A8DB0"/>
    <ellipse cx="238.046" cy="141.32" rx="3.47763" ry="3.45786" fill="#7A8DB0"/>
    <ellipse cx="196.314" cy="153.174" rx="6.45845" ry="6.42175" fill="white"/>
    <ellipse cx="252.951" cy="153.174" rx="6.45845" ry="6.42175" fill="white"/>
    <ellipse opacity="0.5" cx="196.314" cy="153.174" rx="6.45845" ry="6.42175" fill="#C0CDE3"/>
    <ellipse opacity="0.5" cx="252.951" cy="153.174" rx="6.45845" ry="6.42175" fill="#C0CDE3"/>
    <path d="M218.33 155.184C216.523 155.843 214.987 156.776 213.168 157.929C212.701 158.225 212.083 158.086 211.788 157.62C211.492 157.153 211.631 156.536 212.097 156.24C213.915 155.088 215.613 154.046 217.645 153.305C219.692 152.559 222.034 152.133 225.162 152.133C228.377 152.133 231.208 153.033 233.297 153.993C235.365 154.943 236.783 155.988 237.173 156.365C237.571 156.748 237.582 157.381 237.199 157.779C236.815 158.176 236.182 158.188 235.785 157.804C235.603 157.629 234.394 156.698 232.462 155.81C230.552 154.933 228.01 154.133 225.162 154.133C222.228 154.133 220.123 154.53 218.33 155.184Z" fill="#7A8DB0"/>
    <path fill-rule="evenodd" clip-rule="evenodd" d="M242.613 109.127C245.559 106.465 249.242 103.806 252.608 101.897C254.513 100.816 256.375 99.9421 257.985 99.4541C258.79 99.2105 259.584 99.0463 260.322 99.0225C261.045 98.9992 261.851 99.107 262.546 99.5514C264.395 100.734 265.45 102.858 266.054 105.115C266.67 107.412 266.89 110.11 266.869 112.794C266.83 117.694 265.979 122.85 264.976 125.946C269.801 133.59 272.811 143.375 274.391 153.607C274.713 155.694 274.977 157.808 275.185 159.934C275.197 159.988 275.207 160.044 275.213 160.101C275.435 162.079 275.564 163.892 275.604 165.561C276.007 173.317 275.7 181.089 274.798 188.256C279.947 188.437 289.512 190.07 297.141 196.467C300.606 199.373 302.778 203.041 303.092 207.089C303.406 211.146 301.834 215.346 298.282 219.272C291.617 226.639 284.556 229.711 278.918 229.98C276.11 230.114 273.608 229.552 271.722 228.41C269.823 227.26 268.514 225.487 268.346 223.317C268.189 221.29 268.825 219.673 270.012 218.42C271.137 217.231 272.686 216.445 274.24 215.839C275.443 215.371 276.775 214.966 278.054 214.578C278.426 214.465 278.793 214.353 279.151 214.242C280.793 213.732 282.291 213.214 283.531 212.544C286.036 211.19 287.003 209.841 287.365 208.807C287.733 207.757 287.571 206.766 287.297 205.949C286.498 203.574 283.816 201.345 280.571 199.657C278.997 198.838 277.384 198.195 275.977 197.759C274.862 197.414 273.944 197.22 273.307 197.15C273.139 197.933 272.964 198.703 272.782 199.461C270.986 206.898 267.799 210.898 262.938 212.443C262.183 212.684 261.395 212.861 260.577 212.984C260.558 213.032 260.539 213.081 260.518 213.129C260.072 214.189 259.169 214.914 258.219 215.419C257.253 215.932 256.074 216.306 254.806 216.585C252.265 217.144 249.098 217.376 245.924 217.407C242.735 217.438 239.47 217.267 236.703 216.995C233.974 216.727 231.613 216.349 230.291 215.932C227.783 215.141 225.724 213.838 224.732 211.769C224.245 210.751 224.062 209.649 224.144 208.483C222.984 208.398 221.803 208.33 220.601 208.284C220.69 209.476 220.518 210.599 220.046 211.633C219.096 213.716 217.11 215.043 214.671 215.852C213.387 216.277 211.104 216.66 208.477 216.931C205.81 217.206 202.663 217.379 199.589 217.348C196.53 217.317 193.473 217.082 191.015 216.515C189.788 216.231 188.643 215.85 187.705 215.326C186.776 214.807 185.909 214.069 185.484 213.011C185.349 212.676 185.258 212.332 185.199 211.988C183.237 211.375 181.564 210.178 180.15 208.597C177.329 205.442 175.423 200.629 174.156 195.203C171.865 185.395 171.524 172.962 172.209 162.765C172.254 161.568 172.339 160.302 172.466 158.961C172.479 158.815 172.513 158.676 172.565 158.547C173.855 146.254 177.942 134.251 184.346 124.931C183.319 121.857 182.436 116.598 182.396 111.605C182.375 108.92 182.595 106.223 183.211 103.926C183.815 101.669 184.87 99.5442 186.719 98.3619C187.414 97.9175 188.219 97.8097 188.943 97.8331C189.68 97.8568 190.475 98.021 191.279 98.2647C192.889 98.7526 194.752 99.6267 196.657 100.707C200.038 102.625 203.737 105.298 206.69 107.973C217.867 104.567 231.063 105.081 242.613 109.127ZM203.426 109.103C200.883 106.956 197.913 104.868 195.177 103.317C193.369 102.292 191.723 101.534 190.409 101.136C189.751 100.936 189.231 100.844 188.846 100.832C188.478 100.82 188.346 100.884 188.335 100.889C187.421 101.474 186.639 102.722 186.108 104.702C185.589 106.642 185.376 109.044 185.396 111.581C185.431 116.002 186.169 120.56 186.991 123.341C187.038 123.493 187.086 123.647 187.135 123.802C187.146 123.839 187.158 123.877 187.17 123.914C187.237 124.117 187.304 124.308 187.371 124.485L187.35 124.493C187.445 124.8 187.541 125.114 187.637 125.436C180.971 134.578 176.645 146.876 175.442 159.734C175.367 160.542 175.298 161.37 175.236 162.214C174.939 168.251 175.698 172.146 177.107 175.021C178.734 178.341 181.321 180.503 184.792 183.092C187.419 185.052 190.766 186.952 194.209 188.176C197.675 189.409 201.089 189.906 203.928 189.254C207.213 188.501 208.703 186.13 208.707 183.859C208.712 181.585 207.227 179.167 203.902 178.341C199.688 177.293 196.64 175.454 194.636 173.86C193.635 173.064 192.894 172.328 192.396 171.782C192.147 171.509 191.959 171.283 191.829 171.12C191.764 171.038 191.713 170.972 191.677 170.923L191.656 170.895L191.633 170.864L191.619 170.845L191.615 170.838L191.613 170.835L191.612 170.834C191.612 170.834 191.611 170.833 192.837 169.969L191.611 170.833C191.134 170.155 191.297 169.22 191.974 168.743C192.65 168.267 193.583 168.428 194.061 169.101L194.062 169.103L194.063 169.105C194.063 169.105 194.064 169.106 192.916 169.914L194.064 169.106L194.08 169.127C194.098 169.152 194.13 169.194 194.176 169.251C194.267 169.365 194.412 169.541 194.614 169.762C195.016 170.204 195.642 170.827 196.504 171.512C198.226 172.882 200.891 174.501 204.626 175.429C209.25 176.579 211.715 180.17 211.707 183.865C211.7 187.562 209.215 191.119 204.599 192.178C200.981 193.009 196.942 192.333 193.204 191.003C189.444 189.665 185.835 187.613 182.998 185.497C179.828 183.133 176.952 180.824 174.973 177.392C175.203 183.386 175.852 189.363 177.06 194.532C178.288 199.793 180.052 204.028 182.377 206.628C183.303 207.662 184.296 208.416 185.362 208.886C185.49 208.327 185.645 207.844 185.768 207.498C185.831 207.324 185.886 207.182 185.926 207.081C185.947 207.03 185.964 206.99 185.976 206.96L185.992 206.924L185.993 206.921L186.003 206.897L186.019 206.861L186.042 206.809C186.074 206.735 186.121 206.632 186.183 206.502C186.307 206.242 186.49 205.877 186.735 205.434C187.225 204.55 187.97 203.35 188.995 202.068C191.038 199.513 194.258 196.555 198.874 195.205C204.594 193.532 209.254 194.589 212.75 196.735C216.195 198.85 218.448 201.979 219.543 204.43C219.673 204.721 219.792 205.009 219.9 205.295C221.585 205.345 223.23 205.437 224.834 205.563C224.959 205.238 225.099 204.909 225.255 204.578C227.515 199.764 234.675 192.132 246.633 195.462C251.401 196.79 254.739 199.703 256.865 202.235C257.931 203.504 258.705 204.692 259.215 205.568C259.47 206.006 259.661 206.369 259.79 206.627C259.854 206.756 259.903 206.859 259.938 206.932L259.959 206.979L259.978 207.02L259.988 207.044L259.99 207.046L260.006 207.082L260.029 207.136L260.044 207.169L260.058 207.203C260.101 207.303 260.158 207.444 260.223 207.618C260.353 207.963 260.516 208.449 260.65 209.01C260.716 209.284 260.78 209.595 260.827 209.932C261.242 209.847 261.643 209.744 262.03 209.62C265.518 208.511 268.22 205.657 269.883 198.769C271.288 192.949 272.23 186.277 272.609 179.282C270.774 182.241 268.242 184.377 265.474 186.563C262.753 188.712 259.278 190.814 255.641 192.21C252.025 193.598 248.097 194.348 244.544 193.59C240.002 192.621 237.522 189.13 237.444 185.483C237.365 181.837 239.687 178.221 244.193 176.988C247.798 176.002 250.353 174.354 251.998 172.969C252.822 172.276 253.417 171.649 253.8 171.205C253.991 170.983 254.128 170.807 254.215 170.692C254.258 170.635 254.288 170.593 254.305 170.568L254.322 170.545C254.78 169.857 255.71 169.67 256.399 170.127C257.09 170.585 257.278 171.516 256.82 172.206L255.57 171.377C256.82 172.206 256.819 172.208 256.819 172.208L256.816 172.212L256.812 172.219L256.798 172.238L256.783 172.26L256.757 172.298C256.723 172.347 256.675 172.413 256.613 172.495C256.489 172.66 256.31 172.888 256.073 173.163C255.599 173.713 254.891 174.456 253.931 175.264C252.009 176.882 249.074 178.763 244.985 179.882C241.798 180.754 240.394 183.158 240.443 185.419C240.491 187.678 241.992 189.978 245.169 190.656C247.926 191.244 251.223 190.693 254.565 189.41C257.885 188.135 261.099 186.196 263.614 184.209C266.939 181.583 269.409 179.398 270.927 176.084C272.129 173.46 272.786 170 272.581 164.864C272.502 163.534 272.403 162.206 272.281 160.881C272.265 160.734 272.249 160.585 272.232 160.436C272.225 160.379 272.222 160.322 272.222 160.266C272.019 158.179 271.761 156.105 271.444 154.056C269.793 143.361 266.597 133.544 261.627 126.267C261.721 126.069 261.813 125.873 261.902 125.677L261.894 125.674C262.853 123.146 263.828 117.867 263.869 112.771C263.889 110.234 263.676 107.831 263.156 105.892C262.626 103.912 261.844 102.664 260.929 102.079C260.919 102.074 260.787 102.009 260.418 102.021C260.034 102.033 259.513 102.126 258.856 102.325C257.542 102.723 255.895 103.481 254.088 104.506C251.331 106.07 248.335 108.178 245.779 110.343C246.402 110.604 247.018 110.875 247.627 111.158C247.068 111.804 246.356 112.502 245.426 113.229C245.374 113.27 245.322 113.31 245.271 113.351C232.305 107.711 216.338 107.065 204.011 112.062C203.204 111.403 202.335 110.691 201.459 109.926C201.53 109.895 201.6 109.863 201.671 109.832C202.248 109.577 202.833 109.334 203.426 109.103ZM273.884 194.225C274.768 194.344 275.799 194.589 276.872 194.922C278.445 195.409 280.227 196.12 281.965 197.024C285.344 198.782 288.955 201.476 290.143 205.009C290.531 206.162 290.866 207.878 290.199 209.782C289.527 211.702 287.927 213.554 284.967 215.154C283.448 215.975 281.704 216.564 280.049 217.079C279.645 217.204 279.248 217.325 278.859 217.443L278.857 217.444C277.601 217.826 276.422 218.184 275.337 218.606C273.916 219.16 272.866 219.75 272.199 220.454C271.594 221.094 271.244 221.888 271.337 223.089C271.417 224.119 272.033 225.115 273.286 225.873C274.552 226.639 276.427 227.123 278.774 227.011C283.444 226.788 289.797 224.198 296.049 217.287C299.178 213.828 300.339 210.397 300.1 207.316C299.861 204.225 298.196 201.246 295.203 198.737C288.108 192.788 279.039 191.328 274.386 191.218C274.231 192.236 274.064 193.239 273.884 194.225ZM211.181 199.292C208.385 197.576 204.599 196.656 199.716 198.084C195.887 199.204 193.146 201.68 191.338 203.941C190.438 205.067 189.785 206.121 189.359 206.889C189.146 207.272 188.992 207.582 188.892 207.791C188.842 207.896 188.806 207.975 188.784 208.025L188.768 208.062L188.761 208.079L188.757 208.087L188.757 208.089L188.751 208.103L188.744 208.117L188.738 208.131L188.731 208.149C188.725 208.163 188.718 208.181 188.708 208.204C188.681 208.271 188.641 208.374 188.594 208.506C188.499 208.772 188.381 209.143 188.285 209.564C188.077 210.473 188.042 211.331 188.268 211.893C188.339 212.07 188.557 212.366 189.167 212.706C189.766 213.041 190.612 213.342 191.69 213.592C193.843 214.089 196.655 214.318 199.62 214.348C202.57 214.378 205.603 214.212 208.169 213.947C210.774 213.678 212.776 213.319 213.728 213.004C215.76 212.33 216.852 211.407 217.317 210.388C217.777 209.38 217.801 207.885 216.804 205.654C215.913 203.66 214.028 201.04 211.181 199.292ZM227.97 205.853C229.84 201.869 235.749 195.546 245.828 198.352C249.835 199.468 252.692 201.93 254.568 204.164C255.503 205.278 256.181 206.319 256.623 207.078C256.843 207.456 257.003 207.762 257.106 207.968C257.138 208.032 257.165 208.086 257.186 208.13L257.208 208.178L257.218 208.198L257.229 208.223L257.242 208.251L257.246 208.259L257.252 208.275L257.259 208.288L257.259 208.29L257.265 208.303L257.277 208.33L257.296 208.373C257.324 208.439 257.365 208.541 257.414 208.67C257.512 208.932 257.634 209.296 257.733 209.709C257.947 210.604 257.979 211.43 257.754 211.964C257.685 212.127 257.46 212.425 256.811 212.769C256.178 213.106 255.289 213.407 254.161 213.655C251.912 214.15 248.98 214.377 245.894 214.407C242.823 214.437 239.666 214.272 236.996 214.009C234.288 213.743 232.195 213.387 231.194 213.071C229.056 212.396 227.916 211.471 227.438 210.472C226.973 209.502 226.938 208.052 227.97 205.853Z" fill="#7A8DB0"/>
    <path d="M191.852 108.718C189.325 109.207 186.893 120.689 191.852 121.523C194.493 121.967 193.06 119.163 196.237 117.114C198.293 115.789 201.271 118.101 201.702 116.126C202.645 111.815 194.501 108.206 191.852 108.718Z" fill="white"/>
    <path d="M259.139 109.77C261.582 110.582 262.49 122.283 257.462 122.468C254.785 122.567 256.574 119.972 253.691 117.528C251.825 115.948 248.569 117.855 248.4 115.841C248.03 111.444 256.58 108.92 259.139 109.77Z" fill="white"/>
    <ellipse cx="197.728" cy="211.959" rx="0.993608" ry="0.987961" fill="#C0CDE3"/>
    <ellipse cx="201.703" cy="211.959" rx="0.993608" ry="0.987961" fill="#C0CDE3"/>
    <ellipse cx="205.677" cy="211.959" rx="0.993608" ry="0.987961" fill="#C0CDE3"/>
    <ellipse rx="0.993608" ry="0.987961" transform="matrix(-1 0 0 1 246.415 211.959)" fill="#C0CDE3"/>
    <ellipse rx="0.993608" ry="0.987961" transform="matrix(-1 0 0 1 242.44 211.959)" fill="#C0CDE3"/>
    <ellipse rx="0.993608" ry="0.987961" transform="matrix(-1 0 0 1 238.467 211.959)" fill="#C0CDE3"/>
    <defs>
        <linearGradient id="paint0_linear" x1="104.673" y1="223.324" x2="9.42237" y2="159.76" gradientUnits="userSpaceOnUse">
            <stop offset="0.0186616" stop-color="#314EB4"/>
            <stop offset="0.820514" stop-color="#2A7FFF"/>
        </linearGradient>
        <linearGradient id="paint1_linear" x1="349.673" y1="223.323" x2="254.422" y2="159.76" gradientUnits="userSpaceOnUse">
            <stop offset="0.0186616" stop-color="#314EB4"/>
            <stop offset="0.820514" stop-color="#2A7FFF"/>
        </linearGradient>
        <linearGradient id="paint2_linear" x1="242.056" y1="216.002" x2="284.785" y2="135.856" gradientUnits="userSpaceOnUse">
            <stop stop-color="#314EB4"/>
            <stop offset="1" stop-color="#2A7FFF"/>
        </linearGradient>
        <linearGradient id="paint3_linear" x1="302.058" y1="189.236" x2="267.247" y2="191.596" gradientUnits="userSpaceOnUse">
            <stop stop-color="#314EB4"/>
            <stop offset="1" stop-color="#2A7FFF"/>
        </linearGradient>
        <linearGradient id="paint4_linear" x1="228.531" y1="229.741" x2="272.479" y2="180.781" gradientUnits="userSpaceOnUse">
            <stop stop-color="#314EB4"/>
            <stop offset="1" stop-color="#2A7FFF"/>
        </linearGradient>
    </defs>
</svg>