<svg width="14" height="14" viewBox="0 0 14 14" fill="none" xmlns="http://www.w3.org/2000/svg">
    <rect width="14" height="14" rx="7" fill="#EF3148"/>
    <path d="M6.99997 9.00003C6.44768 9.00003 5.99997 9.44774 5.99997 10C5.99997 10.5523 6.44768 11 6.99997 11C7.55225 11 7.99997 10.5523 7.99997 10C7.99997 9.44774 7.55225 9.00003 6.99997 9.00003Z" fill="white"/>
    <path d="M5.99997 7.06657C5.99997 7.61885 6.44768 8.06657 6.99997 8.06657C7.55225 8.06657 7.99997 7.61885 7.99997 7.06657V4C7.99997 3.44772 7.55225 3 6.99997 3C6.44768 3 5.99997 3.44772 5.99997 4L5.99997 7.06657Z" fill="white"/>
</svg>